<?xml version="1.0" encoding="UTF-8" standalone="no"?>
<!DOCTYPE svg PUBLIC "-//W3C//DTD SVG 1.1//EN" "http://www.w3.org/Graphics/SVG/1.1/DTD/svg11.dtd">
<svg version="1.1" xmlns="http://www.w3.org/2000/svg" xmlns:xlink="http://www.w3.org/1999/xlink" preserveAspectRatio="xMidYMid meet" viewBox="0 0 640 640" width="293.33" height="293.33">
    <defs>
        <path d="M264.37 0L237.7 0L24.37 213.33L24.37 240C24.37 464 24.37 588.44 24.37 613.33C24.37 629.33 35.04 640 51.04 640C104.37 640 531.04 640 584.37 640C600.37 640 611.04 629.33 611.04 613.33C611.04 554.67 611.04 85.33 611.04 26.67C611.04 10.67 600.37 0 584.37 0C541.7 0 435.04 0 264.37 0ZM237.7 213.33L91.04 213.33L237.7 66.67L237.7 213.33ZM77.7 586.67L77.7 240C173.7 240 227.04 240 237.7 240C253.7 240 264.37 229.33 264.37 213.33C264.37 202.67 264.37 149.33 264.37 53.33L557.7 53.33L557.7 586.67L77.7 586.67Z" id="a2o2x18ftK"/>
        <path d="M189.7 394.67C184.37 400 184.37 410.67 189.7 416C195.84 422.13 244.9 471.2 251.04 477.33C256.37 482.67 267.04 482.67 272.37 477.33C277.7 472 277.7 461.33 272.37 456C268.99 452.62 252.1 435.73 221.7 405.33C252.1 374.93 268.99 358.04 272.37 354.67C277.7 349.33 277.7 338.67 272.37 333.33C267.04 328 256.37 328 251.04 333.33C238.77 345.6 195.84 388.53 189.7 394.67Z" id="faD8Ox9Dq"/>
        <path d="M387.04 477.33C393.17 471.2 442.24 422.13 448.37 416C453.7 410.67 453.7 400 448.37 394.67C442.24 388.53 393.17 339.47 387.04 333.33C381.7 328 371.04 328 365.7 333.33C360.37 338.67 360.37 349.33 365.7 354.67C369.08 358.04 385.97 374.93 416.37 405.33C385.97 435.73 369.08 452.62 365.7 456C360.37 461.33 360.37 469.33 365.7 477.33C371.04 482.67 381.7 482.67 387.04 477.33Z" id="azv1Kspz3"/>
    </defs>
    <g>
        <g>
            <g>
                <use xlink:href="#a2o2x18ftK" opacity="1" fill="#ffffff" fill-opacity="1"/>
                <g>
                    <use xlink:href="#a2o2x18ftK" opacity="1" fill-opacity="0" stroke="#000000" stroke-width="1" stroke-opacity="0"/>
                </g>
            </g>
            <g>
                <use xlink:href="#faD8Ox9Dq" opacity="1" fill="#ffffff" fill-opacity="1"/>
                <g>
                    <use xlink:href="#faD8Ox9Dq" opacity="1" fill-opacity="0" stroke="#000000" stroke-width="1" stroke-opacity="0"/>
                </g>
            </g>
            <g>
                <use xlink:href="#azv1Kspz3" opacity="1" fill="#ffffff" fill-opacity="1"/>
                <g>
                    <use xlink:href="#azv1Kspz3" opacity="1" fill-opacity="0" stroke="#000000" stroke-width="1" stroke-opacity="0"/>
                </g>
            </g>
        </g>
    </g>
</svg>
